0
SECTION
2
HEADER
9
$INSUNITS
70
4
9
$ACADVER
1
AC1014
9
$HANDSEED
5
FFFF
0
ENDSEC
0
SECTION
2
TABLES
0
TABLE
2
VPORT
5
8
100
AcDbSymbolTable
0
ENDTAB
0
TABLE
2
LTYPE
5
5
100
AcDbSymbolTable
0
LTYPE
5
14
100
AcDbSymbolTableRecord
100
AcDbLinetypeTableRecord
2
BYBLOCK
70
0
0
LTYPE
5
15
100
AcDbSymbolTableRecord
100
AcDbLinetypeTableRecord
2
BYLAYER
70
0
0
ENDTAB
0
TABLE
2
LAYER
5
2
100
AcDbSymbolTable
70
2
0
LAYER
5
50
100
AcDbSymbolTableRecord
100
AcDbLayerTableRecord
2
0
70
0
6
CONTINUOUS
0
ENDTAB
0
TABLE
2
STYLE
5
3
100
AcDbSymbolTable
70
1
0
STYLE
5
11
100
AcDbSymbolTableRecord
100
AcDbTextStyleTableRecord
2
STANDARD
70
0
0
ENDTAB
0
TABLE
2
VIEW
5
6
100
AcDbSymbolTable
70
0
0
ENDTAB
0
TABLE
2
UCS
5
7
100
AcDbSymbolTable
70
0
0
ENDTAB
0
TABLE
2
APPID
5
9
100
AcDbSymbolTable
70
2
0
APPID
5
12
100
AcDbSymbolTableRecord
100
AcDbRegAppTableRecord
2
ACAD
70
0
0
ENDTAB
0
TABLE
2
DIMSTYLE
5
A
100
AcDbSymbolTable
70
1
0
ENDTAB
0
TABLE
2
BLOCK_RECORD
5
1
100
AcDbSymbolTable
70
1
0
BLOCK_RECORD
5
1F
100
AcDbSymbolTableRecord
100
AcDbBlockTableRecord
2
*MODEL_SPACE
0
BLOCK_RECORD
5
1B
100
AcDbSymbolTableRecord
100
AcDbBlockTableRecord
2
*PAPER_SPACE
0
ENDTAB
0
ENDSEC
0
SECTION
2
BLOCKS
0
BLOCK
5
20
100
AcDbEntity
100
AcDbBlockBegin
2
*MODEL_SPACE
0
ENDBLK
5
21
100
AcDbEntity
100
AcDbBlockEnd
0
BLOCK
5
1C
100
AcDbEntity
100
AcDbBlockBegin
2
*PAPER_SPACE
0
ENDBLK
5
1D
100
AcDbEntity
100
AcDbBlockEnd
0
ENDSEC
0
SECTION
2
ENTITIES
0
LWPOLYLINE
5
100
100
AcDbEntity
8
0
100
AcDbPolyline
90
64
70
1
43
0.0
10
53.55199933052063
20
-7.5
10
53.544999361038208
20
-7.3530000448226929
10
53.523999452590942
20
-7.206999659538269
10
53.487999439239502
20
-7.0640003681182861
10
53.437999486923218
20
-6.9250005483627319
10
53.374999761581421
20
-6.7919999361038208
10
53.298999071121216
20
-6.665000319480896
10
53.210999965667725
20
-6.5469998121261597
10
53.112000226974487
20
-6.4380002021789551
10
53.003000020980835
20
-6.3390004634857178
10
52.884999513626099
20
-6.2510001659393311
10
52.757999897003174
20
-6.1750000715255737
10
52.624999284744263
20
-6.1120003461837769
10
52.486000061035156
20
-6.0619997978210449
10
52.343000173568726
20
-6.0260003805160522
10
52.196999788284302
20
-6.0050004720687866
10
52.050000429153442
20
-5.9980005025863647
10
51.902999877929688
20
-6.0050004720687866
10
51.756999492645264
20
-6.0260003805160522
10
51.613999605178833
20
-6.0619997978210449
10
51.475000381469727
20
-6.1120003461837769
10
51.341999769210815
20
-6.1750000715255737
10
51.215000152587891
20
-6.2510001659393311
10
51.096999645233154
20
-6.3390004634857178
10
50.987999439239502
20
-6.4380002021789551
10
50.888999700546265
20
-6.5469998121261597
10
50.800999402999878
20
-6.665000319480896
10
50.724999904632568
20
-6.7919999361038208
10
50.661998987197876
20
-6.9250005483627319
10
50.612000226974487
20
-7.0640003681182861
10
50.576000213623047
20
-7.206999659538269
10
50.555000305175781
20
-7.3530000448226929
10
50.547000169754028
20
-7.5
10
50.555000305175781
20
-7.6469999551773071
10
50.576000213623047
20
-7.793000340461731
10
50.612000226974487
20
-7.9360002279281616
10
50.661998987197876
20
-8.0750000476837158
10
50.724999904632568
20
-8.2080000638961792
10
50.800999402999878
20
-8.3350002765655518
10
50.888999700546265
20
-8.4530001878738403
10
50.987999439239502
20
-8.5620003938674927
10
51.096999645233154
20
-8.66100013256073
10
51.215000152587891
20
-8.7489998340606689
10
51.341999769210815
20
-8.8249999284744263
10
51.475000381469727
20
-8.8879996538162231
10
51.613999605178833
20
-8.9379996061325073
10
51.756999492645264
20
-8.9740002155303955
10
51.902999877929688
20
-8.9950001239776611
10
52.050000429153442
20
-9.0030002593994141
10
52.196999788284302
20
-8.9950001239776611
10
52.343000173568726
20
-8.9740002155303955
10
52.486000061035156
20
-8.9379996061325073
10
52.624999284744263
20
-8.8879996538162231
10
52.757999897003174
20
-8.8249999284744263
10
52.884999513626099
20
-8.7489998340606689
10
53.003000020980835
20
-8.66100013256073
10
53.112000226974487
20
-8.5620003938674927
10
53.210999965667725
20
-8.4530001878738403
10
53.298999071121216
20
-8.3350002765655518
10
53.374999761581421
20
-8.2080000638961792
10
53.437999486923218
20
-8.0750000476837158
10
53.487999439239502
20
-7.9360002279281616
10
53.523999452590942
20
-7.793000340461731
10
53.544999361038208
20
-7.6469999551773071
0
LWPOLYLINE
5
101
100
AcDbEntity
8
0
100
AcDbPolyline
90
64
70
1
43
0.0
10
51.952999830245972
20
-1.161000058054924
10
52.062000036239624
20
-1.0620000213384628
10
52.160999774932861
20
-0.95300003886222839
10
52.248998880386353
20
-0.83499997854232788
10
52.324999570846558
20
-0.70799998939037323
10
52.387999296188354
20
-0.57500001043081284
10
52.437999248504639
20
-0.43600000441074371
10
52.473999261856079
20
-0.29300002381205559
10
52.494999170303345
20
-0.14700000174343586
10
52.501999139785767
20
0
10
52.494999170303345
20
0.14700000174343586
10
52.473999261856079
20
0.29300002381205559
10
52.437999248504639
20
0.43600000441074371
10
52.387999296188354
20
0.57500001043081284
10
52.324999570846558
20
0.70799998939037323
10
52.248998880386353
20
0.83499997854232788
10
52.160999774932861
20
0.95300003886222839
10
52.062000036239624
20
1.0620000213384628
10
51.952999830245972
20
1.161000058054924
10
51.834999322891235
20
1.2489999830722809
10
51.707999706268311
20
1.3250000774860382
10
51.574999094009399
20
1.388000100851059
10
51.435999870300293
20
1.4380000531673431
10
51.292999982833862
20
1.4740000665187836
10
51.146999597549438
20
1.4949999749660492
10
51.000000238418579
20
1.5019999444484711
10
50.852999687194824
20
1.4949999749660492
10
50.7069993019104
20
1.4740000665187836
10
50.56399941444397
20
1.4380000531673431
10
50.425000190734863
20
1.388000100851059
10
50.291999578475952
20
1.3250000774860382
10
50.164999961853027
20
1.2489999830722809
10
50.046999454498291
20
1.161000058054924
10
49.937999248504639
20
1.0620000213384628
10
49.838999509811401
20
0.95300003886222839
10
49.75100040435791
20
0.83499997854232788
10
49.674999713897705
20
0.70799998939037323
10
49.611999988555908
20
0.57500001043081284
10
49.562000036239624
20
0.43600000441074371
10
49.526000022888184
20
0.29300002381205559
10
49.505000114440918
20
0.14700000174343586
10
49.496999979019165
20
0
10
49.505000114440918
20
-0.14700000174343586
10
49.526000022888184
20
-0.29300002381205559
10
49.562000036239624
20
-0.43600000441074371
10
49.611999988555908
20
-0.57500001043081284
10
49.674999713897705
20
-0.70799998939037323
10
49.75100040435791
20
-0.83499997854232788
10
49.838999509811401
20
-0.95300003886222839
10
49.937999248504639
20
-1.0620000213384628
10
50.046999454498291
20
-1.161000058054924
10
50.164999961853027
20
-1.2489999830722809
10
50.291999578475952
20
-1.3250000774860382
10
50.425000190734863
20
-1.388000100851059
10
50.56399941444397
20
-1.4380000531673431
10
50.7069993019104
20
-1.4740000665187836
10
50.852999687194824
20
-1.4949999749660492
10
51.000000238418579
20
-1.5019999444484711
10
51.146999597549438
20
-1.4949999749660492
10
51.292999982833862
20
-1.4740000665187836
10
51.435999870300293
20
-1.4380000531673431
10
51.574999094009399
20
-1.388000100851059
10
51.707999706268311
20
-1.3250000774860382
10
51.834999322891235
20
-1.2489999830722809
0
LWPOLYLINE
5
102
100
AcDbEntity
8
0
100
AcDbPolyline
90
30
70
1
43
0.0
10
41.394999027252197
20
-13.470000028610229
10
41.68799877166748
20
-13.14500093460083
10
41.906998157501221
20
-12.765001058578491
10
42.042999267578125
20
-12.347999811172485
10
42.087998390197754
20
-11.912000179290771
10
42.042999267578125
20
-11.476000547409058
10
41.906998157501221
20
-11.059000492095947
10
41.68799877166748
20
-10.679000616073608
10
41.394999027252197
20
-10.353000164031982
10
41.040999889373779
20
-10.095000267028809
10
40.639998912811279
20
-9.9169999361038208
10
40.211999416351318
20
-9.8260003328323364
10
39.774000644683838
20
-9.8260003328323364
10
39.34499979019165
20
-9.9169999361038208
10
38.945000171661377
20
-10.095000267028809
10
38.590998649597168
20
-10.353000164031982
10
38.297998905181885
20
-10.679000616073608
10
38.078999519348145
20
-11.059000492095947
10
37.943000793457031
20
-11.476000547409058
10
37.896997928619385
20
-11.912000179290771
10
37.943000793457031
20
-12.347999811172485
10
38.078999519348145
20
-12.765001058578491
10
38.297998905181885
20
-13.14500093460083
10
38.590998649597168
20
-13.470000028610229
10
38.945000171661377
20
-13.727999925613403
10
39.34499979019165
20
-13.906999826431274
10
39.774000644683838
20
-13.998000621795654
10
40.211999416351318
20
-13.998000621795654
10
40.639998912811279
20
-13.906999826431274
10
41.040999889373779
20
-13.727999925613403
0
LWPOLYLINE
5
103
100
AcDbEntity
8
0
100
AcDbPolyline
90
30
70
1
43
0.0
10
38.945000171661377
20
10.095000267028809
10
39.34499979019165
20
9.9160003662109375
10
39.774000644683838
20
9.8240005970001221
10
40.211999416351318
20
9.8240005970001221
10
40.639998912811279
20
9.9160003662109375
10
41.040999889373779
20
10.095000267028809
10
41.394999027252197
20
10.351999998092651
10
41.68799877166748
20
10.678000450134277
10
41.906998157501221
20
11.057000160217285
10
42.042999267578125
20
11.475000381469727
10
42.087998390197754
20
11.91100001335144
10
42.042999267578125
20
12.345999479293823
10
41.906998157501221
20
12.762999534606934
10
41.68799877166748
20
13.142999410629272
10
41.394999027252197
20
13.470000028610229
10
41.040999889373779
20
13.727000951766968
10
40.639998912811279
20
13.904999494552612
10
40.211999416351318
20
13.996000289916992
10
39.774000644683838
20
13.996000289916992
10
39.34499979019165
20
13.904999494552612
10
38.945000171661377
20
13.727000951766968
10
38.590998649597168
20
13.470000028610229
10
38.297998905181885
20
13.142999410629272
10
38.078999519348145
20
12.762999534606934
10
37.943000793457031
20
12.345999479293823
10
37.896997928619385
20
11.91100001335144
10
37.943000793457031
20
11.475000381469727
10
38.078999519348145
20
11.057000160217285
10
38.297998905181885
20
10.678000450134277
10
38.590998649597168
20
10.351999998092651
0
LWPOLYLINE
5
104
100
AcDbEntity
8
0
100
AcDbPolyline
90
64
70
1
43
0.0
10
70.875000357627869
20
12.458000183105469
10
70.812000036239624
20
12.324999570846558
10
70.76200008392334
20
12.186000347137451
10
70.726000070571899
20
12.043000459671021
10
70.705000162124634
20
11.897000074386597
10
70.697000026702881
20
11.750000715255737
10
70.705000162124634
20
11.603000164031982
10
70.726000070571899
20
11.456999778747559
10
70.76200008392334
20
11.313999891281128
10
70.812000036239624
20
11.175000667572021
10
70.875000357627869
20
11.04200005531311
10
70.951000452041626
20
10.915000438690186
10
71.039000153541565
20
10.796999931335449
10
71.137999892234802
20
10.687999725341797
10
71.247000098228455
20
10.58899998664856
10
71.365000009536743
20
10.501000881195068
10
71.492000222206116
20
10.425000190734863
10
71.625000238418579
20
10.362000465393066
10
71.764000058174133
20
10.312000513076782
10
71.906999945640564
20
10.276000499725342
10
72.053000330924988
20
10.255000591278076
10
72.199999690055847
20
10.248000621795654
10
72.347000241279602
20
10.255000591278076
10
72.493000030517578
20
10.276000499725342
10
72.636000514030457
20
10.312000513076782
10
72.775000333786011
20
10.362000465393066
10
72.908000349998474
20
10.425000190734863
10
73.034999966621399
20
10.501000881195068
10
73.152999877929688
20
10.58899998664856
10
73.26200008392334
20
10.687999725341797
10
73.361000418663025
20
10.796999931335449
10
73.449000716209412
20
10.915000438690186
10
73.524999618530273
20
11.04200005531311
10
73.588000535964966
20
11.175000667572021
10
73.637999892234802
20
11.313999891281128
10
73.673999905586243
20
11.456999778747559
10
73.694999814033508
20
11.603000164031982
10
73.70199978351593
20
11.750000715255737
10
73.694999814033508
20
11.897000074386597
10
73.673999905586243
20
12.043000459671021
10
73.637999892234802
20
12.186000347137451
10
73.588000535964966
20
12.324999570846558
10
73.524999618530273
20
12.458000183105469
10
73.449000716209412
20
12.584999799728394
10
73.361000418663025
20
12.70300030708313
10
73.26200008392334
20
12.812000513076782
10
73.152999877929688
20
12.91100025177002
10
73.034999966621399
20
12.998999357223511
10
72.908000349998474
20
13.075000047683716
10
72.775000333786011
20
13.137999773025513
10
72.636000514030457
20
13.187999725341797
10
72.493000030517578
20
13.223999738693237
10
72.347000241279602
20
13.244999647140503
10
72.199999690055847
20
13.253000974655151
10
72.053000330924988
20
13.244999647140503
10
71.906999945640564
20
13.223999738693237
10
71.764000058174133
20
13.187999725341797
10
71.625000238418579
20
13.137999773025513
10
71.492000222206116
20
13.075000047683716
10
71.365000009536743
20
12.998999357223511
10
71.247000098228455
20
12.91100025177002
10
71.137999892234802
20
12.812000513076782
10
71.039000153541565
20
12.70300030708313
10
70.951000452041626
20
12.584999799728394
0
LWPOLYLINE
5
105
100
AcDbEntity
8
0
100
AcDbPolyline
90
30
70
1
43
0.0
10
91.409001350402832
20
13.470000028610229
10
91.054999828338623
20
13.727000951766968
10
90.65500020980835
20
13.904999494552612
10
90.225999355316162
20
13.996000289916992
10
89.788000583648682
20
13.996000289916992
10
89.360001087188721
20
13.904999494552612
10
88.959000110626221
20
13.727000951766968
10
88.605000972747803
20
13.470000028610229
10
88.31200122833252
20
13.142999410629272
10
88.093001842498779
20
12.762999534606934
10
87.957000732421875
20
12.345999479293823
10
87.912001609802246
20
11.91100001335144
10
87.957000732421875
20
11.475000381469727
10
88.093001842498779
20
11.057000160217285
10
88.31200122833252
20
10.678000450134277
10
88.605000972747803
20
10.351999998092651
10
88.959000110626221
20
10.095000267028809
10
89.360001087188721
20
9.9160003662109375
10
89.788000583648682
20
9.8240005970001221
10
90.225999355316162
20
9.8240005970001221
10
90.65500020980835
20
9.9160003662109375
10
91.054999828338623
20
10.095000267028809
10
91.409001350402832
20
10.351999998092651
10
91.702001094818115
20
10.678000450134277
10
91.921000480651855
20
11.057000160217285
10
92.056999206542969
20
11.475000381469727
10
92.103002071380615
20
11.91100001335144
10
92.056999206542969
20
12.345999479293823
10
91.921000480651855
20
12.762999534606934
10
91.702001094818115
20
13.142999410629272
0
LWPOLYLINE
5
106
100
AcDbEntity
8
0
100
AcDbPolyline
90
30
70
1
43
0.0
10
88.31200122833252
20
-13.14500093460083
10
88.605000972747803
20
-13.470000028610229
10
88.959000110626221
20
-13.727999925613403
10
89.360001087188721
20
-13.906999826431274
10
89.788000583648682
20
-13.998000621795654
10
90.225999355316162
20
-13.998000621795654
10
90.65500020980835
20
-13.906999826431274
10
91.054999828338623
20
-13.727999925613403
10
91.409001350402832
20
-13.470000028610229
10
91.702001094818115
20
-13.14500093460083
10
91.921000480651855
20
-12.765001058578491
10
92.056999206542969
20
-12.347999811172485
10
92.103002071380615
20
-11.912000179290771
10
92.056999206542969
20
-11.476000547409058
10
91.921000480651855
20
-11.059000492095947
10
91.702001094818115
20
-10.679000616073608
10
91.409001350402832
20
-10.353000164031982
10
91.054999828338623
20
-10.095000267028809
10
90.65500020980835
20
-9.9169999361038208
10
90.225999355316162
20
-9.8260003328323364
10
89.788000583648682
20
-9.8260003328323364
10
89.360001087188721
20
-9.9169999361038208
10
88.959000110626221
20
-10.095000267028809
10
88.605000972747803
20
-10.353000164031982
10
88.31200122833252
20
-10.679000616073608
10
88.093001842498779
20
-11.059000492095947
10
87.957000732421875
20
-11.476000547409058
10
87.912001609802246
20
-11.912000179290771
10
87.957000732421875
20
-12.347999811172485
10
88.093001842498779
20
-12.765001058578491
0
LWPOLYLINE
5
107
100
AcDbEntity
8
0
100
AcDbPolyline
90
64
70
1
43
0.0
10
64.292000010609627
20
13.675000667572021
10
64.424999989569187
20
13.612000942230225
10
64.563999995589256
20
13.56200098991394
10
64.706999976187944
20
13.525999784469604
10
64.852999998256564
20
13.504999876022339
10
65
20
13.497999906539917
10
65.147000001743436
20
13.504999876022339
10
65.293000023812056
20
13.525999784469604
10
65.436000004410744
20
13.56200098991394
10
65.575000010430813
20
13.612000942230225
10
65.707999989390373
20
13.675000667572021
10
65.834999978542328
20
13.751000165939331
10
65.953000038862228
20
13.839000463485718
10
66.062000021338463
20
13.938000202178955
10
66.161000058054924
20
14.047000408172607
10
66.248999983072281
20
14.164999723434448
10
66.325000077486038
20
14.292000532150269
10
66.388000100851059
20
14.424999952316284
10
66.438000053167343
20
14.564000368118286
10
66.474000066518784
20
14.707000255584717
10
66.494999974966049
20
14.852999448776245
10
66.501999944448471
20
15
10
66.494999974966049
20
15.147000551223755
10
66.474000066518784
20
15.293000936508179
10
66.438000053167343
20
15.435999631881714
10
66.388000100851059
20
15.575000047683716
10
66.325000077486038
20
15.708000659942627
10
66.248999983072281
20
15.835000276565552
10
66.161000058054924
20
15.953000783920288
10
66.062000021338463
20
16.06200098991394
10
65.953000038862228
20
16.160999536514282
10
65.834999978542328
20
16.249001026153564
10
65.707999989390373
20
16.325000524520874
10
65.575000010430813
20
16.388000249862671
10
65.436000004410744
20
16.438000202178955
10
65.293000023812056
20
16.474001407623291
10
65.147000001743436
20
16.495001316070557
10
65
20
16.503000259399414
10
64.852999998256564
20
16.495001316070557
10
64.706999976187944
20
16.474001407623291
10
64.563999995589256
20
16.438000202178955
10
64.424999989569187
20
16.388000249862671
10
64.292000010609627
20
16.325000524520874
10
64.165000021457672
20
16.249001026153564
10
64.046999961137772
20
16.160999536514282
10
63.937999978661537
20
16.06200098991394
10
63.838999941945076
20
15.953000783920288
10
63.751000016927719
20
15.835000276565552
10
63.674999922513962
20
15.708000659942627
10
63.611999899148941
20
15.575000047683716
10
63.561999946832657
20
15.435999631881714
10
63.525999933481216
20
15.293000936508179
10
63.505000025033951
20
15.147000551223755
10
63.498000055551529
20
15
10
63.505000025033951
20
14.852999448776245
10
63.525999933481216
20
14.707000255584717
10
63.561999946832657
20
14.564000368118286
10
63.611999899148941
20
14.424999952316284
10
63.674999922513962
20
14.292000532150269
10
63.751000016927719
20
14.164999723434448
10
63.838999941945076
20
14.047000408172607
10
63.937999978661537
20
13.938000202178955
10
64.046999961137772
20
13.839000463485718
10
64.165000021457672
20
13.751000165939331
0
LWPOLYLINE
5
108
100
AcDbEntity
8
0
100
AcDbPolyline
90
64
70
1
43
0.0
10
76.937999725341797
20
-8.5620003938674927
10
77.046999931335449
20
-8.66100013256073
10
77.165000438690186
20
-8.7489998340606689
10
77.29200005531311
20
-8.8249999284744263
10
77.425000667572021
20
-8.8879996538162231
10
77.563999891281128
20
-8.9379996061325073
10
77.706999778747559
20
-8.9740002155303955
10
77.853000164031982
20
-8.9950001239776611
10
78.000000715255737
20
-9.0030002593994141
10
78.147000074386597
20
-8.9950001239776611
10
78.293000459671021
20
-8.9740002155303955
10
78.436000347137451
20
-8.9379996061325073
10
78.574999570846558
20
-8.8879996538162231
10
78.708000183105469
20
-8.8249999284744263
10
78.834999799728394
20
-8.7489998340606689
10
78.95300030708313
20
-8.66100013256073
10
79.062000513076782
20
-8.5620003938674927
10
79.16100025177002
20
-8.4530001878738403
10
79.248999357223511
20
-8.3350002765655518
10
79.325000047683716
20
-8.2080000638961792
10
79.387999773025513
20
-8.0750000476837158
10
79.437999725341797
20
-7.9360002279281616
10
79.473999738693237
20
-7.793000340461731
10
79.494999647140503
20
-7.6469999551773071
10
79.503000974655151
20
-7.5
10
79.494999647140503
20
-7.3530000448226929
10
79.473999738693237
20
-7.206999659538269
10
79.437999725341797
20
-7.0640003681182861
10
79.387999773025513
20
-6.9250005483627319
10
79.325000047683716
20
-6.7919999361038208
10
79.248999357223511
20
-6.665000319480896
10
79.16100025177002
20
-6.5469998121261597
10
79.062000513076782
20
-6.4380002021789551
10
78.95300030708313
20
-6.3390004634857178
10
78.834999799728394
20
-6.2510001659393311
10
78.708000183105469
20
-6.1750000715255737
10
78.574999570846558
20
-6.1120003461837769
10
78.436000347137451
20
-6.0619997978210449
10
78.293000459671021
20
-6.0260003805160522
10
78.147000074386597
20
-6.0050004720687866
10
78.000000715255737
20
-5.9980005025863647
10
77.853000164031982
20
-6.0050004720687866
10
77.706999778747559
20
-6.0260003805160522
10
77.563999891281128
20
-6.0619997978210449
10
77.425000667572021
20
-6.1120003461837769
10
77.29200005531311
20
-6.1750000715255737
10
77.165000438690186
20
-6.2510001659393311
10
77.046999931335449
20
-6.3390004634857178
10
76.937999725341797
20
-6.4380002021789551
10
76.83899998664856
20
-6.5469998121261597
10
76.751000881195068
20
-6.665000319480896
10
76.675000190734863
20
-6.7919999361038208
10
76.612000465393066
20
-6.9250005483627319
10
76.562000513076782
20
-7.0640003681182861
10
76.526000499725342
20
-7.206999659538269
10
76.505000591278076
20
-7.3530000448226929
10
76.497000455856323
20
-7.5
10
76.505000591278076
20
-7.6469999551773071
10
76.526000499725342
20
-7.793000340461731
10
76.562000513076782
20
-7.9360002279281616
10
76.612000465393066
20
-8.0750000476837158
10
76.675000190734863
20
-8.2080000638961792
10
76.751000881195068
20
-8.3350002765655518
10
76.83899998664856
20
-8.4530001878738403
0
LWPOLYLINE
5
109
100
AcDbEntity
8
0
100
AcDbPolyline
90
64
70
1
43
0.0
10
70.612000226974487
20
-12.53600001335144
10
70.662000179290771
20
-12.675000429153442
10
70.724999904632568
20
-12.807999849319458
10
70.800999999046326
20
-12.935000658035278
10
70.889000296592712
20
-13.053001165390015
10
70.98800003528595
20
-13.162000179290771
10
71.097000241279602
20
-13.260999917984009
10
71.215000152587891
20
-13.349000215530396
10
71.342000365257263
20
-13.425000905990601
10
71.474999785423279
20
-13.488000631332397
10
71.614000201225281
20
-13.538000583648682
10
71.757000088691711
20
-13.574000597000122
10
71.902999877929688
20
-13.595000505447388
10
72.050000429153442
20
-13.602999448776245
10
72.19700038433075
20
-13.595000505447388
10
72.343000173568726
20
-13.574000597000122
10
72.486000061035156
20
-13.538000583648682
10
72.62499988079071
20
-13.488000631332397
10
72.757999897003174
20
-13.425000905990601
10
72.885000109672546
20
-13.349000215530396
10
73.003000617027283
20
-13.260999917984009
10
73.112000823020935
20
-13.162000179290771
10
73.211000561714172
20
-13.053001165390015
10
73.298999667167664
20
-12.935000658035278
10
73.375000357627869
20
-12.807999849319458
10
73.438000082969666
20
-12.675000429153442
10
73.48800003528595
20
-12.53600001335144
10
73.52400004863739
20
-12.39300012588501
10
73.544999957084656
20
-12.246999740600586
10
73.553000688552856
20
-12.100000381469727
10
73.544999957084656
20
-11.952999830245972
10
73.52400004863739
20
-11.807000637054443
10
73.48800003528595
20
-11.663999557495117
10
73.438000082969666
20
-11.525000333786011
10
73.375000357627869
20
-11.392000913619995
10
73.298999667167664
20
-11.265000104904175
10
73.211000561714172
20
-11.147000789642334
10
73.112000823020935
20
-11.038000583648682
10
73.003000617027283
20
-10.939000844955444
10
72.885000109672546
20
-10.851000547409058
10
72.757999897003174
20
-10.774999856948853
10
72.62499988079071
20
-10.712000131607056
10
72.486000061035156
20
-10.662000179290771
10
72.343000173568726
20
-10.626000165939331
10
72.19700038433075
20
-10.605000257492065
10
72.050000429153442
20
-10.598000288009644
10
71.902999877929688
20
-10.605000257492065
10
71.757000088691711
20
-10.626000165939331
10
71.614000201225281
20
-10.662000179290771
10
71.474999785423279
20
-10.712000131607056
10
71.342000365257263
20
-10.774999856948853
10
71.215000152587891
20
-10.851000547409058
10
71.097000241279602
20
-10.939000844955444
10
70.98800003528595
20
-11.038000583648682
10
70.889000296592712
20
-11.147000789642334
10
70.800999999046326
20
-11.265000104904175
10
70.724999904632568
20
-11.392000913619995
10
70.662000179290771
20
-11.525000333786011
10
70.612000226974487
20
-11.663999557495117
10
70.576000213623047
20
-11.807000637054443
10
70.554999709129333
20
-11.952999830245972
10
70.547999739646912
20
-12.100000381469727
10
70.554999709129333
20
-12.246999740600586
10
70.576000213623047
20
-12.39300012588501
0
LWPOLYLINE
5
110
100
AcDbEntity
8
0
100
AcDbPolyline
90
36
70
1
43
0.0
10
95.024001598358154
20
-18.916000127792358
10
34.975998401641846
20
-18.916000127792358
10
34.589998722076416
20
-18.878000974655151
10
34.21799898147583
20
-18.765000104904175
10
33.875999450683594
20
-18.582000732421875
10
33.575000762939453
20
-18.334999084472656
10
33.329000473022461
20
-18.035000562667847
10
33.145999908447266
20
-17.691999673843384
10
33.03300142288208
20
-17.319999933242798
10
32.994997501373291
20
-16.933001279830933
10
32.994997501373291
20
16.931999921798706
10
33.03300142288208
20
17.318000793457031
10
33.145999908447266
20
17.691000699996948
10
33.329000473022461
20
18.03300142288208
10
33.575000762939453
20
18.334999084472656
10
33.875999450683594
20
18.580999374389648
10
34.21799898147583
20
18.765000104904175
10
34.589998722076416
20
18.87700080871582
10
34.975998401641846
20
18.915001153945923
10
95.024001598358154
20
18.915001153945923
10
95.410001277923584
20
18.87700080871582
10
95.78200101852417
20
18.765000104904175
10
96.124000549316406
20
18.580999374389648
10
96.424999237060547
20
18.334999084472656
10
96.670999526977539
20
18.03300142288208
10
96.854000091552734
20
17.691000699996948
10
96.96699857711792
20
17.318000793457031
10
97.005002498626709
20
16.931999921798706
10
97.005002498626709
20
-16.933001279830933
10
96.96699857711792
20
-17.319999933242798
10
96.854000091552734
20
-17.691999673843384
10
96.670999526977539
20
-18.035000562667847
10
96.424999237060547
20
-18.334999084472656
10
96.124000549316406
20
-18.582000732421875
10
95.78200101852417
20
-18.765000104904175
10
95.410001277923584
20
-18.878000974655151
0
LWPOLYLINE
5
111
100
AcDbEntity
8
0
100
AcDbPolyline
90
64
70
1
43
0.0
10
56.494999527931213
20
-6.9800001382827759
10
57.219999432563782
20
-7.7800005674362183
10
58.019999861717224
20
-8.5050004720687866
10
58.88700008392334
20
-9.1479998826980591
10
59.812999963760376
20
-9.7030001878738403
10
60.789999961853027
20
-10.164999961853027
10
61.805999875068665
20
-10.529000759124756
10
62.85400003194809
20
-10.791000127792358
10
63.922000005841255
20
-10.950000286102295
10
65
20
-11.003000736236572
10
66.077999994158745
20
-10.950000286102295
10
67.14599996805191
20
-10.791000127792358
10
68.194000124931335
20
-10.529000759124756
10
69.210000038146973
20
-10.164999961853027
10
70.187000036239624
20
-9.7030001878738403
10
71.11299991607666
20
-9.1479998826980591
10
71.980000138282776
20
-8.5050004720687866
10
72.780000567436218
20
-7.7800005674362183
10
73.505000472068787
20
-6.9800001382827759
10
74.147999882698059
20
-6.1129999160766602
10
74.70300018787384
20
-5.187000036239624
10
75.164999961853027
20
-4.2100000381469727
10
75.529000759124756
20
-3.1940001249313354
10
75.791000127792358
20
-2.1459999680519104
10
75.950000286102295
20
-1.0779999941587448
10
76.003000736236572
20
0
10
75.950000286102295
20
1.0779999941587448
10
75.791000127792358
20
2.1459999680519104
10
75.529000759124756
20
3.1940001249313354
10
75.164999961853027
20
4.2100000381469727
10
74.70300018787384
20
5.187000036239624
10
74.147999882698059
20
6.1129999160766602
10
73.505000472068787
20
6.9800001382827759
10
72.780000567436218
20
7.7800005674362183
10
71.980000138282776
20
8.5050004720687866
10
71.11299991607666
20
9.1479998826980591
10
70.187000036239624
20
9.7030001878738403
10
69.210000038146973
20
10.164999961853027
10
68.194000124931335
20
10.529000759124756
10
67.14599996805191
20
10.791000127792358
10
66.077999994158745
20
10.950000286102295
10
65
20
11.003000736236572
10
63.922000005841255
20
10.950000286102295
10
62.85400003194809
20
10.791000127792358
10
61.805999875068665
20
10.529000759124756
10
60.789999961853027
20
10.164999961853027
10
59.812999963760376
20
9.7030001878738403
10
58.88700008392334
20
9.1479998826980591
10
58.019999861717224
20
8.5050004720687866
10
57.219999432563782
20
7.7800005674362183
10
56.494999527931213
20
6.9800001382827759
10
55.852000117301941
20
6.1129999160766602
10
55.29699981212616
20
5.187000036239624
10
54.835000038146973
20
4.2100000381469727
10
54.470999240875244
20
3.1940001249313354
10
54.208999872207642
20
2.1459999680519104
10
54.049999713897705
20
1.0779999941587448
10
53.996999263763428
20
0
10
54.049999713897705
20
-1.0779999941587448
10
54.208999872207642
20
-2.1459999680519104
10
54.470999240875244
20
-3.1940001249313354
10
54.835000038146973
20
-4.2100000381469727
10
55.29699981212616
20
-5.187000036239624
10
55.852000117301941
20
-6.1129999160766602
0
ENDSEC
0
SECTION
2
OBJECTS
0
DICTIONARY
5
C
100
AcDbDictionary
3
ACAD_GROUP
350
D
3
ACAD_MLINESTYLE
350
17
0
DICTIONARY
5
D
100
AcDbDictionary
0
DICTIONARY
5
1A
330
C
100
AcDbDictionary
0
DICTIONARY
5
17
100
AcDbDictionary
0
ENDSEC
0
EOF
